<svg width="64" height="64" viewBox="0 0 64 64" fill="none" xmlns="http://www.w3.org/2000/svg">
<g clip-path="url(#clip0_855_1843)">
<g clip-path="url(#clip1_855_1843)">
<rect width="64" height="64" fill="white"/>
<g clip-path="url(#clip2_855_1843)">
<path d="M82.9861 0L-435 0V345.986H82.9861V0Z" fill="#535354"/>
<g filter="url(#filter0_d_855_1843)">
<path d="M-435 0V345.986H82.9861V0L-435 0ZM-222.709 227.389L-222.95 227.659C-225.499 230.371 -230.844 229.167 -231.984 225.624C-233.13 222.082 -229.511 217.964 -225.858 218.663C-222.204 219.355 -220.347 224.517 -222.709 227.389ZM-120.769 261.351C-123.594 268.575 -122.468 274.941 -123.559 282.283C-126.018 298.807 -156.973 312.792 -153.989 287.632C-153.333 282.124 -151.592 276.318 -153.754 271.212C-155.971 265.98 -161.552 263.219 -166.089 259.808C-170.634 256.396 -174.674 250.425 -172.112 245.353C-169.991 241.145 -164.487 240.045 -159.784 240.287C-155.087 240.53 -150.163 241.581 -145.819 239.775C-138.187 236.606 -135.1 225.77 -126.957 224.351C-121.363 223.376 -115.879 227.873 -114.139 233.292C-110.934 243.27 -117.288 252.459 -120.755 261.344L-120.769 261.351ZM-48.3199 119.199C-48.7619 124.244 -47.4497 136.838 -53.4721 138.325C-55.551 138.837 -59.1285 136.831 -61.7944 137.204C-64.3498 137.557 -66.6428 138.851 -69.0946 139.529C-73.6943 140.789 -76.7401 141.003 -80.1173 137.011C-85.5389 130.596 -81.7473 124.389 -80.6008 117.4C-80.4696 116.583 -80.4281 115.719 -80.5179 114.881C-80.8287 111.899 -78.1559 109.422 -75.2 109.892C-73.57 110.148 -71.947 110.619 -70.4138 111.138C-65.8071 112.688 -60.8897 114.618 -56.2416 112.266C-55.1988 111.74 -54.0661 111.38 -52.8989 111.394C-48.2301 111.456 -48.0298 115.829 -48.3268 119.213L-48.3199 119.199Z" fill="#858587"/>
</g>
<g filter="url(#filter1_d_855_1843)">
<path d="M-435 0V345.986H82.9861V0L-435 0ZM-307.458 223.486C-312.783 235.748 -332.142 229.562 -337.17 220.469C-339.2 216.788 -339.905 212.124 -337.992 208.374C-336.175 204.81 -332.287 202.672 -328.35 202.014C-317.693 200.243 -302.23 211.432 -307.458 223.486ZM-94.987 224.344C-96.1196 228.219 -98.1916 231.742 -99.8491 235.423C-106.673 250.549 -102.508 262.956 -102.232 278.346C-101.942 294.614 -119.823 307.506 -131.115 316.446C-138.443 322.251 -147.531 328.41 -156.392 325.428C-161.386 323.746 -165.095 319.338 -167.146 314.474C-169.197 309.616 -169.819 304.281 -170.351 299.036C-171.573 287.03 -172.492 274.789 -176.884 263.558C-181.277 252.321 -189.827 242.003 -201.443 238.807C-209.828 236.495 -218.793 238.094 -227.405 236.897C-236.017 235.693 -245.362 229.859 -245.396 221.147C-245.424 213.916 -238.524 208.041 -231.355 207.19C-224.187 206.339 -217.1 209.425 -211.106 213.446C-205.111 217.466 -199.8 222.483 -193.639 226.254C-187.479 230.025 -180.054 232.523 -173.044 230.794C-164.963 228.794 -159.266 221.784 -152.359 217.141C-141.771 210.014 -128.497 208.567 -115.803 207.315C-108.62 206.609 -99.9113 206.588 -95.9815 212.65C-93.7852 216.034 -93.8543 220.476 -94.9801 224.351L-94.987 224.344ZM-22.2963 162.807C-23.7466 165.049 -27.117 164.599 -29.624 163.693C-36.0263 161.389 -42.5599 157.894 -47.1596 152.822C-51.4071 148.131 -54.7291 145.722 -61.6356 149.072C-66.3251 151.341 -70.4138 155.126 -75.5453 156.019C-82.3758 157.202 -89.2477 152.628 -92.5697 146.532C-95.8917 140.436 -96.3061 133.17 -95.8503 126.243C-95.3944 119.317 -94.1582 112.411 -94.4759 105.47C-95.2563 88.3372 -105.361 73.0654 -116.639 60.1739C-118.365 58.2018 -120.189 56.1466 -120.838 53.6002C-121.487 51.0537 -120.493 47.8706 -118.013 47.0126C-115.133 46.0092 -112.281 48.4796 -110.368 50.8669C-102.287 60.9489 -97.3766 73.2176 -89.8555 83.7217C-82.3343 94.2259 -70.7314 103.381 -57.8647 102.357C-51.5659 101.851 -44.1 99.3049 -39.7075 103.858C-35.2667 108.453 -38.1536 115.912 -39.4589 122.175C-41.9521 134.111 -36.8482 147.3 -26.972 154.427C-24.0851 156.51 -20.3763 159.825 -22.3101 162.814L-22.2963 162.807Z" fill="#9F9FA1"/>
</g>
<g filter="url(#filter2_d_855_1843)">
<path d="M-435 0V345.986H-178.88C-179.633 345.287 -180.337 344.526 -180.952 343.682C-187.568 334.652 -183.273 322.155 -180.98 311.194C-177.941 296.669 -179.239 280.664 -187.506 268.347C-195.773 256.03 -211.914 248.563 -226.024 253.075C-234.885 255.905 -244.92 262.811 -252.268 257.102C-258.215 252.487 -256.93 243.145 -260.349 236.44C-264.251 228.794 -273.996 225.728 -282.491 226.863C-290.993 227.998 -298.638 232.406 -306.236 236.398C-313.833 240.384 -322.01 244.121 -330.574 243.713C-345.112 243.021 -357.419 228.365 -355.617 213.889C-353.814 199.419 -338.282 188.244 -324.02 191.157C-314.972 193.005 -307.631 199.343 -299.882 204.388C-292.133 209.425 -282.374 213.37 -273.837 209.841C-259.845 204.063 -256.799 181.65 -241.86 179.214C-234.995 178.093 -228.268 182.037 -223.303 186.916C-218.337 191.794 -214.435 197.717 -209.11 202.201C-197.638 211.868 -179.868 213.134 -167.139 205.191C-160.267 200.9 -154.832 194.285 -147.31 191.282C-138.74 187.864 -129.064 189.753 -120.113 192.002C-111.162 194.25 -101.811 196.811 -92.8529 194.61C-83.8952 192.403 -75.8353 183.414 -78.2733 174.495C-81.2845 163.485 -96.1404 161.313 -103.772 152.843C-113.773 141.744 -108.586 124.5 -108.047 109.553C-107.474 93.5892 -113.289 77.4871 -123.925 65.5851C-128.428 60.5476 -133.794 56.1743 -137.22 50.3479C-140.646 44.5215 -141.613 36.4739 -137.199 31.3533C-130.514 23.6032 -117.495 28.011 -110.112 35.0968C-99.7939 44.992 -93.8198 58.4717 -85.4837 70.0968C-77.1544 81.715 -64.5432 92.2191 -50.302 91.0843C-45.3501 90.6899 -40.5984 88.8977 -35.6672 88.2818C-30.736 87.666 -25.1487 88.5171 -21.9717 92.3506C-18.7878 96.1911 -18.995 101.879 -20.5904 106.612C-22.1858 111.345 -24.9484 115.615 -26.5023 120.355C-30.0385 131.101 -26.523 143.82 -17.9797 151.224C-11.3495 156.96 -0.941406 162.254 -2.77853 170.834C-4.5397 179.048 -16.3083 180.065 -23.8502 176.384C-31.3921 172.702 -38.05 166.253 -46.4275 165.859C-54.9018 165.457 -62.5542 171.748 -66.3873 179.338C-70.2204 186.936 -68.9979 195.198 -71.7743 202.789C-74.157 209.308 -79.9654 215.148 -82.9697 221.604C-89.5102 235.665 -92.5006 251.407 -91.3473 266.894C-90.5047 278.145 -87.5832 289.5 -89.8347 300.558C-92.2244 312.287 -100.291 322.231 -109.919 329.317C-119.546 336.402 -130.728 341.004 -141.785 345.536C-142.165 345.689 -142.538 345.848 -142.918 346H82.9999V0L-435 0Z" fill="#B9B9BB"/>
</g>
<g filter="url(#filter3_d_855_1843)">
<path d="M82.9727 0V345.986H-115.499C-112.011 343.129 -108.635 340.118 -105.402 336.97L-93.2461 328.604C-79.9584 319.269 -75.3515 301.582 -75.0752 285.328C-74.792 269.074 -77.8308 252.729 -75.5586 236.634C-73.2864 220.539 -63.7974 203.807 -48.0439 199.918C-36.9936 197.192 -25.5838 201.287 -14.4092 203.433C-3.2345 205.585 10.213 204.914 16.9883 195.759C23.2659 187.282 20.9452 175.076 15.7793 165.873C10.6133 156.67 3.00952 148.954 -1.55566 139.446C-6.94962 128.202 -7.64069 114.777 -3.42773 103.034C-0.913757 96.0385 3.23743 89.6584 5.04688 82.4551C6.85623 75.2517 5.59161 66.4358 -0.617188 62.374C-5.9006 58.9214 -12.9731 60.0354 -18.7744 62.5195C-24.5757 65.0037 -29.8658 68.7266 -35.9434 70.4219C-49.7356 74.2623 -64.4122 66.6856 -74.3506 56.3545C-84.2889 46.0235 -91.0224 33.0489 -100.035 21.9014C-109.048 10.7537 -121.681 0.989925 -135.998 1.17676C-155.336 1.4331 -170.938 23.6239 -164.674 41.9541C-160.288 54.7763 -148.146 63.267 -141.385 75.0098C-129.623 95.4437 -136.053 121.102 -142.78 143.709C-146.468 156.102 -150.364 168.897 -158.755 178.723C-167.146 188.555 -181.339 194.645 -193.273 189.725C-209.407 183.068 -216.555 159.326 -233.994 158.828C-254.278 158.247 -262.912 189.975 -283.147 191.435C-304.288 192.963 -314.013 161.112 -334.967 157.901C-344.712 156.407 -354.539 161.991 -360.458 169.893C-366.37 177.802 -368.988 187.684 -370.611 197.427C-372.524 208.92 -373.18 220.995 -369.312 231.983C-365.445 242.972 -356.217 252.666 -344.697 254.258C-331.548 256.077 -319.531 247.553 -307.721 241.478C-295.904 235.395 -279.522 232.364 -270.896 242.48C-266.102 248.106 -265.418 256.016 -263.905 263.254C-262.393 270.492 -258.926 278.436 -251.854 280.567C-240.935 283.854 -231.838 271.35 -220.774 268.596C-209.786 265.87 -198.204 273.938 -193.971 284.463C-189.737 294.981 -191.45 307.028 -195.207 317.726C-198.481 327.046 -203.26 335.918 -205.069 345.633C-205.09 345.75 -205.104 345.869 -205.125 345.986H-435V26C-434.778 26.2618 -434.566 26.538 -434.365 26.8311C-432.132 29.9403 -431.5 34.5518 -429.15 37.4893C-426.99 40.2138 -423.588 41.1071 -420.519 40.5195C-417.391 39.9708 -414.52 38.0762 -411.915 35.834C-404.195 29.1257 -398.515 19.0216 -390.248 13.3545C-384.448 9.35513 -377.826 7.83838 -371.252 7.37695C-368.07 7.11656 -364.794 7.08747 -361.72 6.00098C-358.867 5.02567 -356.334 2.76164 -354.82 0L82.9727 0Z" fill="#CCCCCF"/>
</g>
<g filter="url(#filter4_d_855_1843)">
<path d="M-99.635 0C-88.191 8.70501 -78.5909 20.0188 -70.3722 31.9276C-65.3305 39.2348 -60.5789 46.9711 -53.6517 52.5138C-46.7245 58.0565 -36.9034 61.0181 -28.8574 57.2953C-16.6882 51.6696 -13.7805 34.0104 -1.53533 28.5439C11.366 22.7797 26.3668 35.3459 28.8739 49.2684C31.3809 63.1978 25.5864 77.1065 20.3858 90.2609C15.1852 103.415 10.4129 118.023 14.8883 131.447C19.7297 145.965 34.1505 155.237 40.8428 169C49.918 187.663 40.8981 212.961 22.0779 221.639C1.64165 231.063 -24.4994 222.012 -43.5889 233.949C-55.2401 241.235 -61.4974 255.109 -62.934 268.797C-63.3138 272.416 -63.4036 276.035 -63.2793 279.654C-62.5334 301.555 -71.1389 322.826 -87.4589 337.42C-90.7602 340.374 -94.1789 343.218 -97.6874 345.979H82.9931V0L-99.6212 0L-99.635 0Z" fill="#DDDDE0"/>
</g>
<g filter="url(#filter5_d_855_1843)">
<path d="M-74.309 0C-71.8157 4.08956 -69.7024 8.41438 -68.0379 12.9122C-65.3927 20.0534 -63.6937 27.7481 -59.094 33.8098C-54.4943 39.8714 -45.6747 43.705 -39.1619 39.7746C-33.4295 36.3147 -32.0413 28.7999 -29.0301 22.8074C-19.216 3.23843 11.0344 1.37703 27.2508 16.0676C43.4603 30.7512 46.7547 55.7591 41.1881 76.9335C36.3259 95.4022 25.6347 114.328 31.8298 132.395C36.2224 145.203 48.2603 154.033 53.5714 166.482C59.6906 180.84 55.5398 198.278 45.5461 210.256C35.5524 222.234 20.5723 229.223 5.27441 232.191C-13.4422 235.824 -36.4615 235.956 -46.0546 252.466C-52.671 263.849 -49.4664 278.152 -50.8822 291.251C-53.2718 313.36 -68.549 330.873 -85.5735 345.993H82.9999V0L-74.2952 0L-74.309 0ZM68.8693 267.683C68.0681 272.692 63.1231 276.588 63.3372 281.654C63.427 283.882 64.532 285.93 65.0777 288.089C65.9271 291.459 65.3608 295.147 63.6203 298.157C61.8868 301.167 59.0207 303.485 55.7539 304.655C52.6529 305.762 49.2411 305.866 46.2298 307.187C38.8813 310.405 36.0014 319.691 29.1225 323.829C27.3614 324.888 25.3032 325.58 23.2658 325.338C21.2284 325.089 19.2462 323.76 18.6246 321.802C18.01 319.857 18.7697 317.781 19.2117 315.788C19.9645 312.384 19.7711 308.779 18.6453 305.478C17.4505 301.963 15.2335 298.794 14.5429 295.147C13.4931 289.583 16.3041 283.792 20.5999 280.103C24.8957 276.415 30.4485 274.547 35.9944 273.426C41.5334 272.305 47.2036 271.848 52.7081 270.561C56.2166 269.738 59.6837 268.554 62.7916 266.714C63.7792 266.133 66.2172 263.579 67.2877 263.669C68.9591 263.808 69.0696 266.465 68.8693 267.683Z" fill="#EFEFF2"/>
</g>
<g filter="url(#filter6_d_855_1843)">
<path d="M79.0702 283.28C79.602 287.452 81.5979 291.424 81.4046 295.624C81.1145 301.859 76.0313 306.897 70.5062 309.782C64.981 312.675 58.7858 314.093 53.2745 317.02C45.8155 320.985 40.0624 327.448 33.8396 333.164C27.6169 338.88 20.2615 344.146 11.8425 344.713C3.41658 345.28 -5.87957 339.35 -6.17655 330.901C-6.39065 324.846 -2.23292 319.587 -0.540833 313.768C2.9055 301.887 -4.09769 288.393 0.826637 277.038C4.19009 269.281 12.4019 264.679 20.6068 262.7C28.8117 260.721 37.3757 260.825 45.698 259.434C61.0373 256.874 71.1001 249.096 82.9724 240.336V0L30.6005 0C31.2013 0.366745 31.8022 0.74733 32.3893 1.13483C54.1033 15.5209 66.0376 43.3728 61.5001 69.0588C58.0399 88.6416 45.9398 107.138 48.6816 126.832C52.0244 150.815 76.6667 169.063 75.6929 193.254C74.802 215.356 52.425 230.669 30.856 235.402C19.115 237.976 6.93886 238.571 -4.53971 242.142C-16.0183 245.712 -27.2344 253.089 -31.2195 264.458C-34.6589 274.27 -32.1449 285.044 -32.359 295.438C-32.7596 314.861 -42.401 331.607 -55.8341 345.993H82.9724V267.267C80.2926 272.25 78.3588 277.73 79.0632 283.28H79.0702Z" fill="white"/>
</g>
</g>
<g style="mix-blend-mode:multiply">
<rect width="64" height="64" fill="url(#paint0_linear_855_1843)"/>
</g>
</g>
<path d="M24.9541 27.7945C24.3098 26.1199 25.7893 24.4029 27.4642 24.8814L47.2554 30.5351C49.1596 31.0791 49.3556 33.8016 47.5504 34.6333L40.1295 38.1028C39.68 38.3098 39.3404 38.7108 39.2 39.2L36.4751 47.2407C35.9063 49.2231 33.2473 49.3481 32.5082 47.4272L24.9541 27.7945Z" fill="white"/>
<path d="M28.557 21.8125C28.1242 21.2682 27.5783 20.8245 26.957 20.512C26.3358 20.1995 25.6541 20.0257 24.9591 20.0026C24.2641 19.9796 23.5724 20.1078 22.9318 20.3785C22.2913 20.6491 21.7172 21.0557 21.2493 21.5701C20.7813 22.0845 20.4308 22.6944 20.2218 23.3577C20.0129 24.0209 19.9505 24.7217 20.0391 25.4114C20.1277 26.1011 20.365 26.7634 20.7348 27.3523C21.1046 27.9412 21.5979 28.4428 22.1806 28.8223L23.2283 27.2134C22.8787 26.9857 22.5827 26.6847 22.3609 26.3314C22.139 25.978 21.9966 25.5807 21.9435 25.1668C21.8903 24.753 21.9277 24.3326 22.0531 23.9346C22.1785 23.5367 22.3888 23.1707 22.6696 22.8621C22.9503 22.5534 23.2948 22.3095 23.6791 22.1471C24.0634 21.9847 24.4785 21.9078 24.8955 21.9216C25.3125 21.9354 25.7215 22.0397 26.0942 22.2272C26.467 22.4147 26.7945 22.6809 27.0542 23.0075L28.557 21.8125Z" fill="white"/>
<path d="M32.3139 18.825C31.4483 17.7364 30.3565 16.8489 29.1141 16.224C27.8716 15.599 26.5082 15.2514 25.1182 15.2053C23.7282 15.1592 22.3448 15.4157 21.0637 15.9569C19.7826 16.4982 18.6344 17.3114 17.6985 18.3402C16.7627 19.369 16.0615 20.5889 15.6436 21.9154C15.2257 23.2419 15.101 24.6434 15.2782 26.0228C15.4553 27.4022 15.9301 28.7267 16.6696 29.9046C17.4091 31.0825 18.3957 32.0856 19.5612 32.8446L21.1328 30.4312C20.317 29.8999 19.6264 29.1977 19.1087 28.3732C18.5911 27.5487 18.2587 26.6216 18.1347 25.656C18.0107 24.6904 18.098 23.7093 18.3905 22.7808C18.6831 21.8522 19.1739 20.9983 19.829 20.2782C20.484 19.558 21.2878 18.9888 22.1846 18.6099C23.0814 18.231 24.0498 18.0514 25.0228 18.0837C25.9958 18.116 26.9501 18.3593 27.8198 18.7968C28.6896 19.2343 29.4538 19.8555 30.0597 20.6175L32.3139 18.825Z" fill="white"/>
</g>
<defs>
<filter id="filter0_d_855_1843" x="-437" y="-2" width="529.986" height="357.986" filterUnits="userSpaceOnUse" color-interpolation-filters="sRGB">
<feFlood flood-opacity="0" result="BackgroundImageFix"/>
<feColorMatrix in="SourceAlpha" type="matrix" values="0 0 0 0 0 0 0 0 0 0 0 0 0 0 0 0 0 0 127 0" result="hardAlpha"/>
<feOffset dx="4" dy="4"/>
<feGaussianBlur stdDeviation="3"/>
<feColorMatrix type="matrix" values="0 0 0 0 0 0 0 0 0 0 0 0 0 0 0 0 0 0 0.4 0"/>
<feBlend mode="normal" in2="BackgroundImageFix" result="effect1_dropShadow_855_1843"/>
<feBlend mode="normal" in="SourceGraphic" in2="effect1_dropShadow_855_1843" result="shape"/>
</filter>
<filter id="filter1_d_855_1843" x="-437" y="-2" width="529.986" height="357.986" filterUnits="userSpaceOnUse" color-interpolation-filters="sRGB">
<feFlood flood-opacity="0" result="BackgroundImageFix"/>
<feColorMatrix in="SourceAlpha" type="matrix" values="0 0 0 0 0 0 0 0 0 0 0 0 0 0 0 0 0 0 127 0" result="hardAlpha"/>
<feOffset dx="4" dy="4"/>
<feGaussianBlur stdDeviation="3"/>
<feColorMatrix type="matrix" values="0 0 0 0 0 0 0 0 0 0 0 0 0 0 0 0 0 0 0.4 0"/>
<feBlend mode="normal" in2="BackgroundImageFix" result="effect1_dropShadow_855_1843"/>
<feBlend mode="normal" in="SourceGraphic" in2="effect1_dropShadow_855_1843" result="shape"/>
</filter>
<filter id="filter2_d_855_1843" x="-437" y="-2" width="530" height="358" filterUnits="userSpaceOnUse" color-interpolation-filters="sRGB">
<feFlood flood-opacity="0" result="BackgroundImageFix"/>
<feColorMatrix in="SourceAlpha" type="matrix" values="0 0 0 0 0 0 0 0 0 0 0 0 0 0 0 0 0 0 127 0" result="hardAlpha"/>
<feOffset dx="4" dy="4"/>
<feGaussianBlur stdDeviation="3"/>
<feColorMatrix type="matrix" values="0 0 0 0 0 0 0 0 0 0 0 0 0 0 0 0 0 0 0.4 0"/>
<feBlend mode="normal" in2="BackgroundImageFix" result="effect1_dropShadow_855_1843"/>
<feBlend mode="normal" in="SourceGraphic" in2="effect1_dropShadow_855_1843" result="shape"/>
</filter>
<filter id="filter3_d_855_1843" x="-437" y="-2" width="529.973" height="357.986" filterUnits="userSpaceOnUse" color-interpolation-filters="sRGB">
<feFlood flood-opacity="0" result="BackgroundImageFix"/>
<feColorMatrix in="SourceAlpha" type="matrix" values="0 0 0 0 0 0 0 0 0 0 0 0 0 0 0 0 0 0 127 0" result="hardAlpha"/>
<feOffset dx="4" dy="4"/>
<feGaussianBlur stdDeviation="3"/>
<feColorMatrix type="matrix" values="0 0 0 0 0 0 0 0 0 0 0 0 0 0 0 0 0 0 0.4 0"/>
<feBlend mode="normal" in2="BackgroundImageFix" result="effect1_dropShadow_855_1843"/>
<feBlend mode="normal" in="SourceGraphic" in2="effect1_dropShadow_855_1843" result="shape"/>
</filter>
<filter id="filter4_d_855_1843" x="-437.001" y="-2" width="529.994" height="357.986" filterUnits="userSpaceOnUse" color-interpolation-filters="sRGB">
<feFlood flood-opacity="0" result="BackgroundImageFix"/>
<feColorMatrix in="SourceAlpha" type="matrix" values="0 0 0 0 0 0 0 0 0 0 0 0 0 0 0 0 0 0 127 0" result="hardAlpha"/>
<feOffset dx="4" dy="4"/>
<feGaussianBlur stdDeviation="3"/>
<feColorMatrix type="matrix" values="0 0 0 0 0 0 0 0 0 0 0 0 0 0 0 0 0 0 0.4 0"/>
<feBlend mode="normal" in2="BackgroundImageFix" result="effect1_dropShadow_855_1843"/>
<feBlend mode="normal" in="SourceGraphic" in2="effect1_dropShadow_855_1843" result="shape"/>
</filter>
<filter id="filter5_d_855_1843" x="-437" y="-2" width="530" height="357.993" filterUnits="userSpaceOnUse" color-interpolation-filters="sRGB">
<feFlood flood-opacity="0" result="BackgroundImageFix"/>
<feColorMatrix in="SourceAlpha" type="matrix" values="0 0 0 0 0 0 0 0 0 0 0 0 0 0 0 0 0 0 127 0" result="hardAlpha"/>
<feOffset dx="4" dy="4"/>
<feGaussianBlur stdDeviation="3"/>
<feColorMatrix type="matrix" values="0 0 0 0 0 0 0 0 0 0 0 0 0 0 0 0 0 0 0.4 0"/>
<feBlend mode="normal" in2="BackgroundImageFix" result="effect1_dropShadow_855_1843"/>
<feBlend mode="normal" in="SourceGraphic" in2="effect1_dropShadow_855_1843" result="shape"/>
</filter>
<filter id="filter6_d_855_1843" x="-57.8341" y="-2" width="150.806" height="357.993" filterUnits="userSpaceOnUse" color-interpolation-filters="sRGB">
<feFlood flood-opacity="0" result="BackgroundImageFix"/>
<feColorMatrix in="SourceAlpha" type="matrix" values="0 0 0 0 0 0 0 0 0 0 0 0 0 0 0 0 0 0 127 0" result="hardAlpha"/>
<feOffset dx="4" dy="4"/>
<feGaussianBlur stdDeviation="3"/>
<feColorMatrix type="matrix" values="0 0 0 0 0 0 0 0 0 0 0 0 0 0 0 0 0 0 0.4 0"/>
<feBlend mode="normal" in2="BackgroundImageFix" result="effect1_dropShadow_855_1843"/>
<feBlend mode="normal" in="SourceGraphic" in2="effect1_dropShadow_855_1843" result="shape"/>
</filter>
<linearGradient id="paint0_linear_855_1843" x1="64" y1="1.90735e-06" x2="-1.90735e-06" y2="64" gradientUnits="userSpaceOnUse">
<stop stop-color="#11998E"/>
<stop offset="1" stop-color="#38EF7D"/>
</linearGradient>
<clipPath id="clip0_855_1843">
<rect width="64" height="64" rx="12" fill="white"/>
</clipPath>
<clipPath id="clip1_855_1843">
<rect width="64" height="64" fill="white"/>
</clipPath>
<clipPath id="clip2_855_1843">
<rect width="518" height="346" fill="white" transform="translate(-435)"/>
</clipPath>
</defs>
</svg>
